<svg width="428" height="76" viewBox="0 0 428 76" fill="none" xmlns="http://www.w3.org/2000/svg">
<path d="M119.448 49.4245L119.428 49.4839C119.408 49.5831 119.309 49.9203 118.913 49.9203C118.655 49.9203 118.506 49.6625 118.457 49.4245L107.123 18.022H97.9414L110.485 51.824C111.972 55.8199 115.046 58.1105 118.923 58.1105C122.8 58.1105 125.744 55.9389 127.281 51.824L139.894 18.022H130.792L119.458 49.4245H119.448Z" fill="#FAFAFA"/>
<path d="M157.365 17.2384C147.817 17.2384 141.649 23.7728 141.649 33.8866V57.089H150.226V34.1941C150.226 28.7505 153.161 25.4981 158.07 25.4981C160.162 25.4981 162.274 26.0633 164.019 27.0747L164.663 27.4515V18.7952L164.425 18.6763C162.482 17.7442 159.983 17.2285 157.375 17.2285L157.365 17.2384Z" fill="#FAFAFA"/>
<path d="M176.72 18.0127H168.144V57.0898H176.72V18.0127Z" fill="#FAFAFA"/>
<path d="M172.388 0.223633C169.353 0.223633 166.895 2.72234 166.895 5.79615C166.895 8.86996 169.363 11.2893 172.388 11.2893C175.412 11.2893 177.812 8.87988 177.812 5.79615C177.812 2.71242 175.382 0.223633 172.388 0.223633Z" fill="#FAFAFA"/>
<path d="M200.646 33.9164C196.283 32.9348 192.506 32.0919 192.506 29.1271C192.506 26.1624 195.669 24.6355 198.792 24.6355C202.639 24.6355 205.287 26.0732 206.675 28.919L206.873 29.3255L213.566 25.5377L213.368 25.1709C210.621 20.1239 205.257 17.2285 198.643 17.2285C190.126 17.2285 183.938 22.2954 183.938 29.2759C183.938 37.9916 191.544 39.6377 197.652 40.9564C202.054 41.9083 205.862 42.7313 205.862 45.8051C205.862 48.6707 202.996 50.5249 198.564 50.5249C194.132 50.5249 191.425 48.988 189.66 45.5275L189.461 45.1308L182.778 48.8195L182.967 49.1863C185.941 54.8977 191.435 57.9219 198.871 57.9219C207.746 57.9219 214.429 52.6369 214.429 45.6365C214.429 36.9803 206.784 35.2649 200.646 33.8866V33.9164Z" fill="#FAFAFA"/>
<path d="M231.513 8.10645H222.937V18.012H215.371V25.5776H222.937V42.9397C222.937 52.2999 228.688 58.1105 237.949 58.1105C240.814 58.1105 243.967 57.228 245.99 55.8497L246.179 55.7208V47.5703L245.504 48.0462C243.63 49.3749 240.943 50.2276 238.653 50.2276C234.181 50.2276 231.513 47.4116 231.513 42.7017V25.5776H246.179V18.012H231.513V8.10645Z" fill="#FAFAFA"/>
<path d="M270.165 17.0806C258.663 17.0806 249.303 26.2325 249.303 37.4767C249.303 48.7209 258.465 58.0316 270.165 58.0316C281.865 58.0316 290.869 49.0085 290.869 37.4767C290.869 25.945 281.776 17.0806 270.165 17.0806ZM270.165 49.8414C263.393 49.8414 257.88 44.3283 257.88 37.556C257.88 30.7837 263.274 25.1914 270.165 25.1914C277.056 25.1914 282.302 30.6251 282.302 37.556C282.302 44.487 276.858 49.8414 270.165 49.8414Z" fill="#FAFAFA"/>
<path d="M316.737 17.0797C304.888 17.0797 295.954 25.845 295.954 37.4759V74.6394H304.531V52.954C307.853 56.1865 312.354 58.0209 317.054 58.0209C328.874 58.0209 337.451 49.3745 337.451 37.466C337.451 25.5575 328.358 17.0698 316.747 17.0698L316.737 17.0797ZM316.737 25.2601C323.539 25.2601 328.874 30.654 328.874 37.5453C328.874 44.4366 323.43 49.91 316.737 49.91C310.044 49.91 304.531 44.3672 304.531 37.5453C304.531 30.7234 309.895 25.2601 316.737 25.2601Z" fill="#FAFAFA"/>
<path d="M360.961 17.0806C349.3 17.0806 340.178 26.0441 340.178 37.4767C340.178 48.9093 348.794 58.0316 359.791 58.0316C365.472 58.0316 370.41 55.6122 373.563 51.3485V57.0897H381.753V37.4767C381.753 25.8458 372.82 17.0806 360.971 17.0806H360.961ZM360.961 49.8414C354.228 49.8414 348.755 44.3283 348.755 37.556C348.755 30.7837 354.228 25.1914 360.961 25.1914C367.693 25.1914 373.167 30.6251 373.167 37.556C373.167 44.487 367.802 49.8414 360.961 49.8414Z" fill="#FAFAFA"/>
<path d="M418.808 18.0119V37.3174C418.808 44.3971 414.326 49.5234 408.158 49.5234C401.991 49.5234 397.896 45.1606 397.896 37.8628V18.0119H389.398V38.2495C389.398 50.5646 395.893 57.6343 407.216 57.6343C412.343 57.6343 416.349 55.6512 418.877 51.8933V53.6978C418.877 62.2847 414.316 67.6193 406.978 67.6193C401.902 67.6193 397.777 65.3088 395.655 61.293L395.457 60.9064L388.317 64.823L388.506 65.19C391.917 71.9326 398.53 75.641 407.137 75.641C419.482 75.641 427.454 66.9946 427.454 53.6086V18.002H418.798L418.808 18.0119Z" fill="#FAFAFA"/>
<path d="M40.6748 48.2446C46.7828 48.2446 51.7412 53.2031 51.7412 59.311C51.741 65.4188 46.7826 70.3765 40.6748 70.3765C34.5671 70.3763 29.6096 65.4187 29.6094 59.311C29.6094 53.2032 34.567 48.2448 40.6748 48.2446ZM15.876 34.3032C18.9497 31.2295 23.9174 31.2298 26.9912 34.3032C30.065 37.377 30.065 42.3446 26.9912 45.4185C23.9174 48.4923 18.9498 48.4923 15.876 45.4185C12.8026 42.3446 12.8023 37.3769 15.876 34.3032ZM54.3486 34.3032C57.4224 31.2296 62.3901 31.2297 65.4639 34.3032C68.5376 37.377 68.5375 42.3446 65.4639 45.4185C62.39 48.4923 57.4225 48.4923 54.3486 45.4185C51.2751 42.3446 51.2749 37.377 54.3486 34.3032ZM6.31738 18.2007C9.50016 18.2007 12.0887 20.7885 12.0889 23.9712C12.0889 27.1541 9.50028 29.7427 6.31738 29.7427C3.13465 29.7425 0.546875 27.154 0.546875 23.9712C0.547062 20.7886 3.13477 18.2009 6.31738 18.2007ZM40.665 18.2007C43.8478 18.2007 46.4363 20.7885 46.4365 23.9712C46.4365 27.1541 43.8479 29.7427 40.665 29.7427C37.4822 29.7426 34.8945 27.154 34.8945 23.9712C34.8947 20.7885 37.4823 18.2008 40.665 18.2007ZM75.0225 18.2007C78.2052 18.2007 80.7938 20.7885 80.7939 23.9712C80.7939 27.1541 78.2054 29.7427 75.0225 29.7427C71.8396 29.7426 69.252 27.154 69.252 23.9712C69.2521 20.7885 71.8397 18.2008 75.0225 18.2007ZM55.0068 5.73682C57.6839 5.73682 59.865 7.9182 59.8652 10.5952C59.8652 13.2724 57.694 15.4546 55.0068 15.4546C52.3297 15.4546 50.1484 13.2724 50.1484 10.5952C50.1487 7.91822 52.3298 5.73685 55.0068 5.73682ZM26.332 5.73682C29.009 5.73696 31.1903 7.91821 31.1904 10.5952C31.1904 13.2723 29.019 15.4535 26.332 15.4536C23.6548 15.4536 21.4736 13.2724 21.4736 10.5952C21.4738 7.91812 23.6549 5.73682 26.332 5.73682Z" fill="#FAFAFA"/>
</svg>
