<svg width="14" height="14" viewBox="0 0 14 14" fill="none" xmlns="http://www.w3.org/2000/svg">
<g clip-path="url(#clip0_21_145)">
<path d="M10.7839 13.7822C10.6531 13.7819 10.5227 13.7676 10.395 13.7394C7.96306 13.2366 5.72261 12.057 3.93167 10.3367C2.17864 8.61282 0.962909 6.41776 0.431666 4.01723C0.369001 3.71806 0.384382 3.4078 0.476328 3.11629C0.568274 2.82479 0.733692 2.56185 0.956666 2.35278L2.51222 0.85556C2.59167 0.780422 2.68608 0.722883 2.78927 0.686698C2.89247 0.650513 3.00213 0.636495 3.11111 0.64556C3.22411 0.657349 3.33315 0.693749 3.43057 0.752201C3.52799 0.810653 3.61142 0.889738 3.675 0.983894L5.61944 3.85778C5.69236 3.96929 5.72756 4.10127 5.71986 4.23428C5.71216 4.36729 5.66197 4.49432 5.57667 4.59667L4.60055 5.76334C4.98897 6.62393 5.53956 7.40162 6.22222 8.05389C6.90042 8.72979 7.70167 9.26969 8.58278 9.64445L9.79222 8.68389C9.8938 8.60361 10.0174 8.55615 10.1466 8.54782C10.2758 8.53948 10.4045 8.57066 10.5156 8.63723L13.4517 10.535C13.5524 10.5952 13.6383 10.6773 13.7028 10.7754C13.7672 10.8734 13.8087 10.9848 13.824 11.1011C13.8394 11.2175 13.8282 11.3358 13.7913 11.4472C13.7544 11.5586 13.6928 11.6602 13.6111 11.7444L12.0944 13.2456C11.9222 13.417 11.7177 13.5527 11.4928 13.6448C11.2678 13.7369 11.0269 13.7836 10.7839 13.7822ZM3.04889 1.41556L1.49333 2.91278C1.3679 3.02966 1.27504 3.17718 1.2239 3.34083C1.17277 3.50447 1.1651 3.67861 1.20167 3.84612C1.69584 6.09861 2.83178 8.15979 4.47222 9.78056C6.15774 11.3989 8.26607 12.5084 10.5544 12.9811C10.7277 13.0173 10.9071 13.01 11.0768 12.9598C11.2465 12.9095 11.4011 12.818 11.5267 12.6933L13.0433 11.1922L10.2083 9.36056L8.90944 10.395C8.85972 10.4344 8.80112 10.461 8.73876 10.4725C8.6764 10.484 8.61217 10.4801 8.55167 10.4611C7.47339 10.0633 6.49611 9.43257 5.68944 8.61389C4.85552 7.83494 4.20814 6.87783 3.79556 5.81389C3.77811 5.74948 3.77753 5.68166 3.79387 5.61696C3.81022 5.55225 3.84294 5.49285 3.88889 5.44445L4.93889 4.18834L3.04889 1.41556Z" fill="#CDEC54"/>
</g>
<defs>
<clipPath id="clip0_21_145">
<rect width="14" height="14" fill="white"/>
</clipPath>
</defs>
</svg>
